<svg xmlns="http://www.w3.org/2000/svg" width="202.64" height="66.88" viewBox="0 0 202.64 66.88"><path d="M26.591549295774648 66.88450704225352Q18.659154929577465 66.88450704225352 12.890140845070423 64.09014084507042Q7.121126760563381 61.29577464788732 3.830985915492958 56.29295774647887Q0.5408450704225354 51.29014084507042 0.0 44.61971830985915L11.898591549295777 43.89859154929577Q12.709859154929578 50.11830985915493 16.4056338028169 53.45352112676056Q20.101408450704227 56.78873239436619 26.771830985915493 56.78873239436619Q32.45070422535211 56.78873239436619 35.56056338028169 54.670422535211266Q38.670422535211266 52.55211267605634 38.670422535211266 48.495774647887316Q38.670422535211266 46.06197183098591 37.498591549295774 44.16901408450704Q36.32676056338028 42.27605633802817 32.99154929577465 40.653521126760566Q29.656338028169017 39.030985915492955 23.07605633802817 37.49859154929577Q15.143661971830987 35.69577464788732 10.366197183098592 33.39718309859154Q5.588732394366198 31.09859154929577 3.4253521126760567 27.628169014084502Q1.2619718309859156 24.157746478873236 1.2619718309859156 18.92957746478873Q1.2619718309859156 13.340845070422532 4.056338028169014 9.05915492957746Q6.850704225352113 4.777464788732388 11.988732394366199 2.388732394366194Q17.126760563380284 0.0 24.338028169014084 0.0Q32.0 0.0 37.36338028169014 2.7492957746478837Q42.72676056338028 5.498591549295767 45.74647887323944 10.276056338028162Q48.76619718309859 15.053521126760558 49.48732394366198 21.27323943661971L37.67887323943662 21.814084507042246Q37.04788732394366 16.58591549295774 33.6225352112676 13.340845070422528Q30.19718309859155 10.095774647887318 24.15774647887324 10.095774647887318Q19.109859154929577 10.095774647887318 16.180281690140845 12.439436619718304Q13.250704225352113 14.78309859154929 13.250704225352113 18.478873239436616Q13.250704225352113 21.092957746478866 14.467605633802817 22.805633802816896Q15.684507042253522 24.518309859154925 18.83943661971831 25.780281690140843Q21.994366197183098 27.04225352112676 27.673239436619717 28.304225352112674Q36.23661971830986 30.197183098591545 41.28450704225352 32.94647887323943Q46.332394366197185 35.69577464788732 48.49577464788733 39.391549295774645Q50.65915492957747 43.08732394366197 50.65915492957747 47.86478873239436Q50.65915492957747 53.72394366197183 47.63943661971831 58.0056338028169Q44.61971830985916 62.28732394366197 39.25633802816902 64.58591549295774Q33.89295774647888 66.88450704225352 26.591549295774648 66.88450704225352Z M69.67887323943663 65.44225352112676Q64.36056338028169 65.44225352112676 61.25070422535211 62.738028169014086Q58.140845070422536 60.03380281690141 58.140845070422536 54.08450704225352V1.4422535211267586H69.67887323943663V52.91267605633803Q69.67887323943663 56.518309859154925 73.28450704225352 56.518309859154925H76.80000000000001V65.44225352112676Z M95.09859154929579 66.52394366197183Q87.5267605633803 66.52394366197183 82.92957746478874 63.098591549295776Q78.33239436619719 59.67323943661972 78.33239436619719 53.36338028169014Q78.33239436619719 47.14366197183098 82.20845070422536 43.628169014084506Q86.08450704225353 40.112676056338024 94.01690140845072 38.58028169014084L109.97183098591552 35.42535211267605Q109.97183098591552 25.149295774647882 100.687323943662 25.149295774647882Q96.54084507042255 25.149295774647882 94.10704225352114 27.087323943661968Q91.67323943661974 29.025352112676053 90.86197183098594 32.63098591549296L79.143661971831 32.090140845070415Q80.58591549295777 24.518309859154925 86.17464788732397 20.371830985915487Q91.76338028169016 16.22535211267605 100.687323943662 16.22535211267605Q110.96338028169015 16.22535211267605 116.23661971830987 21.408450704225345Q121.50985915492959 26.59154929577464 121.50985915492959 36.23661971830985V53.72394366197183Q121.50985915492959 55.6169014084507 122.18591549295776 56.33802816901408Q122.86197183098594 57.05915492957746 124.21408450704227 57.05915492957746H125.74647887323945V65.44225352112676Q124.21408450704227 65.80281690140845 121.50985915492959 65.80281690140845Q117.63380281690142 65.80281690140845 114.92957746478874 64.18028169014084Q112.22535211267606 62.557746478873234 111.50422535211268 58.140845070422536V58.050704225352106Q109.70140845070424 61.836619718309855 105.32957746478874 64.18028169014084Q100.95774647887325 66.52394366197183 95.09859154929579 66.52394366197183ZM97.44225352112677 58.140845070422536Q103.21126760563382 58.140845070422536 106.59154929577467 54.8056338028169Q109.97183098591552 51.47042253521126 109.97183098591552 45.97183098591549V43.267605633802816L97.5323943661972 45.791549295774644Q93.65633802816903 46.602816901408445 91.98873239436622 48.180281690140845Q90.3211267605634 49.75774647887324 90.3211267605634 52.28169014084507Q90.3211267605634 58.140845070422536 97.44225352112677 58.140845070422536Z M144.94647887323944 65.44225352112676Q137.73521126760565 65.44225352112676 134.35492957746482 62.15211267605633Q130.97464788732395 58.861971830985915 130.97464788732395 51.65070422535211V26.23098591549295H123.40281690140846V17.307042253521125H130.97464788732395V6.039436619718302H142.51267605633805V17.307042253521125H155.22253521126763V26.23098591549295H142.51267605633805V50.56901408450704Q142.51267605633805 53.9943661971831 144.0 55.25633802816901Q145.48732394366198 56.518309859154925 148.46197183098593 56.518309859154925H155.22253521126763V65.44225352112676Z M180.10140845070424 66.52394366197183Q172.89014084507045 66.52394366197183 167.5718309859155 63.41408450704225Q162.25352112676057 60.304225352112674 159.36901408450706 54.625352112676055Q156.48450704225354 48.946478873239435 156.48450704225354 41.374647887323945Q156.48450704225354 33.80281690140845 159.36901408450706 28.12394366197183Q162.25352112676057 22.44507042253521 167.5267605633803 19.33521126760563Q172.8 16.22535211267605 179.83098591549296 16.22535211267605Q186.6816901408451 16.22535211267605 191.81971830985918 19.290140845070418Q196.95774647887325 22.354929577464787 199.79718309859157 28.12394366197183Q202.63661971830987 33.89295774647887 202.63661971830987 42.0056338028169V44.61971830985915H168.47323943661974Q168.743661971831 50.92957746478873 171.8985915492958 54.129577464788724Q175.0535211267606 57.32957746478873 180.19154929577465 57.32957746478873Q188.0338028169014 57.32957746478873 190.19718309859155 50.65915492957746L202.00563380281693 51.38028169014084Q200.0225352112676 58.4112676056338 194.20845070422536 62.46760563380282Q188.3943661971831 66.52394366197183 180.10140845070424 66.52394366197183ZM168.47323943661974 36.86760563380281H190.7380281690141Q190.287323943662 31.008450704225346 187.35774647887325 28.169014084507037Q184.42816901408452 25.329577464788727 179.83098591549296 25.329577464788727Q175.143661971831 25.329577464788727 172.16901408450707 28.30422535211267Q169.19436619718311 31.278873239436614 168.47323943661974 36.86760563380281Z" fill="#EDEDED"/></svg>